<svg xmlns="http://www.w3.org/2000/svg" viewBox="0 0 64 64">
  <defs>
    <linearGradient id="g" x1="0" x2="1" y1="0" y2="1">
      <stop offset="0" stop-color="#0ea5e9"/>
      <stop offset="1" stop-color="#6366f1"/>
    </linearGradient>
  </defs>
  <rect width="64" height="64" rx="16" fill="#111827"/>
  <path d="M34 6c10 4 16 10 18 18-4 2-8 3-12 3l-4 8-8 4c0-4-1-8-3-12C24 22 30 16 34 6z" fill="url(#g)"/>
  <circle cx="38" cy="22" r="3" fill="#fff"/>
  <path d="M14 50c2-6 8-10 14-12-2 6-6 12-12 14-1 1-3 0-2-2z" fill="#f59e0b"/>
</svg>
